<svg width="454" height="516" xmlns="http://www.w3.org/2000/svg" version="1.1">

 <g>
  <title>Layer 1</title>
  <path id="svg_1" fill="#f54a00" d="m231,2c4.24039,1.78366 8.1925,3.97649 12.1875,6.25c1.15202,0.63825 2.30405,1.27649 3.49097,1.93408c3.45383,1.91562 6.88884,3.86268 10.32153,5.81592c1.38107,0.78359 1.38107,0.78359 2.79004,1.58301c3.35071,1.90464 6.69714,3.8163 10.03638,5.74096c7.384,4.25232 14.8334,8.38122 22.29858,12.48853c0.91989,0.50628 0.91989,0.50628 1.85837,1.0228c2.48853,1.36956 4.97708,2.73898 7.46585,4.10807c15.62411,8.59729 31.2016,17.27602 46.71289,26.07518c8.32327,4.71156 16.69565,9.33213 25.07458,13.94355c9.49698,5.22717 18.96915,10.49638 28.42175,15.80354c5.48538,3.07851 10.9765,6.14614 16.47827,9.1953c0.90039,0.49919 0.90039,0.49919 1.81897,1.00848c2.88635,1.59995 5.77353,3.19836 8.66199,4.79451c3.133,1.73565 6.25854,3.48395 9.38232,5.23608c1.10651,0.61246 2.21301,1.22493 3.35303,1.85596c1.0733,0.60569 2.14661,1.2114 3.25244,1.83545c0.96448,0.53955 1.92892,1.07912 2.92261,1.63502c2.5636,1.73565 3.83563,3.06955 5.47192,5.67358c0.3772,2.15817 0.3772,2.15817 0.38031,4.53874c0.00845,0.91057 0.01691,1.82112 0.02557,2.75928c-0.00598,0.9966 -0.01199,1.99318 -0.01819,3.01996c0.00806,1.59242 0.00806,1.59242 0.0163,3.21701c0.01434,3.56911 0.00717,7.13783 0.00006,10.70695c0.00571,2.55403 0.01266,5.10805 0.02081,7.66206c0.01608,6.22424 0.01801,12.44836 0.01279,18.67262c-0.00406,5.05852 -0.00259,10.117 0.00272,15.17551c0.00076,0.7196 0.00153,1.43922 0.00229,2.18063c0.00153,1.46182 0.00305,2.92365 0.00461,4.38548c0.01373,13.71277 0.0083,27.42548 -0.00317,41.13824c-0.00995,12.54796 0.00299,25.09575 0.02695,37.64369c0.02435,12.88116 0.034,25.76227 0.02731,38.64349c-0.00348,7.23303 -0.00122,14.46597 0.01627,21.69897c0.01624,6.80032 0.01157,13.60028 -0.00729,20.4006c-0.00369,2.49896 -0.00055,4.99799 0.00989,7.49695c0.01309,3.40527 0.00171,6.8096 -0.01599,10.21484c0.00958,0.99432 0.0192,1.98868 0.02908,3.01318c-0.04642,4.31766 -0.10922,6.75027 -2.41837,10.4874c-2.21921,2.04312 -4.26892,3.42874 -6.94397,4.81937c-0.95093,0.50314 -1.90186,1.00629 -2.88159,1.52466c-1.02264,0.52811 -2.04526,1.05621 -3.09888,1.60034c-2.1911,1.15826 -4.38116,2.31848 -6.57031,3.48047c-1.1102,0.58701 -2.2204,1.17401 -3.36426,1.77881c-4.86124,2.60138 -9.65201,5.3208 -14.44043,8.05322c-8.61154,4.89633 -17.26056,9.72089 -25.9375,14.5c-0.60764,0.33472 -1.21527,0.66943 -1.84134,1.01428c-3.10062,1.70761 -6.20175,3.41431 -9.30319,5.12048c-6.12085,3.36749 -12.23834,6.741 -18.35547,10.11523c-0.60016,0.33099 -1.20029,0.66202 -1.8186,1.00305c-12.08533,6.6665 -24.1517,13.36685 -36.21362,20.07556c-5.61325,3.12146 -11.22809,6.24002 -16.84277,9.35889c-2.25,1.25 -4.5,2.5 -6.75,3.75c-13.5,7.5 -13.5,7.5 -16.88037,9.37793c-2.23215,1.24011 -4.46426,2.48035 -6.69629,3.7207c-5.2655,2.92587 -10.53159,5.85065 -15.79987,8.77148c-2.48485,1.37775 -4.96933,2.7561 -7.4538,4.13452c-1.75089,0.97107 -3.50227,1.94122 -5.25366,2.91138c-1.06284,0.58975 -2.12567,1.1795 -3.2207,1.78711c-0.93312,0.51724 -1.86624,1.03448 -2.82764,1.56738c-1.76303,0.99646 -3.4989,2.04239 -5.20557,3.13257c-3.91444,2.18585 -7.04999,2.20209 -11.41211,1.34692c-4.34868,-1.81433 -8.32741,-4.1608 -12.375,-6.5625c-1.18828,-0.68564 -2.37776,-1.3692 -3.56836,-2.05078c-2.4686,-1.41534 -4.93181,-2.83945 -7.3916,-4.27002c-5.67439,-3.2901 -11.42351,-6.44577 -17.16504,-9.6167c-2.24512,-1.2468 -4.48991,-2.4942 -6.73438,-3.74219c-4.5508,-2.52838 -9.10301,-5.05414 -13.65625,-7.57813c-11.45041,-6.34985 -22.87875,-12.73444 -34.2666,-19.1958c-8.36897,-4.73798 -16.78994,-9.37955 -25.21625,-14.01437c-8.9971,-4.95004 -17.95515,-9.96423 -26.88434,-15.03592c-7.71384,-4.37262 -15.47328,-8.65997 -23.24219,-12.93359c-9.08627,-4.99991 -18.15645,-10.02567 -27.1875,-15.125c-0.90106,-0.5079 -1.80211,-1.01578 -2.73047,-1.53906c-2.5336,-1.43469 -5.05861,-2.88342 -7.58203,-4.33594c-0.90959,-0.51401 -1.81918,-1.02802 -2.75635,-1.55762c-1.33684,-0.77197 -1.33684,-0.77197 -2.70068,-1.55957c-0.80026,-0.45746 -1.60052,-0.91492 -2.42505,-1.38623c-2.92209,-2.06482 -4.86441,-4.05054 -5.49626,-7.65475c-0.00157,-0.78558 -0.00314,-1.57117 -0.00478,-2.38055c-0.00905,-0.91058 -0.01811,-1.82114 -0.02744,-2.75931c0.00533,-0.99658 0.01065,-1.99316 0.01614,-3.01993c-0.00609,-1.06161 -0.01218,-2.12323 -0.01846,-3.21704c-0.01669,-3.56909 -0.01184,-7.13782 -0.00705,-10.70694c-0.00734,-2.55402 -0.01591,-5.10803 -0.02567,-7.66205c-0.01996,-6.22427 -0.02559,-12.44836 -0.02382,-18.67264c0.00131,-5.05853 -0.00249,-10.117 -0.00992,-15.17551c-0.00211,-1.45648 -0.0042,-2.91296 -0.00629,-4.36945c-0.00105,-0.72488 -0.00209,-1.4498 -0.00317,-2.19666c-0.01891,-13.71277 -0.01785,-27.42548 -0.01103,-41.13824c0.00558,-12.548 -0.01524,-25.09576 -0.04836,-37.64371c-0.03372,-12.88118 -0.0489,-25.76225 -0.04428,-38.64348c0.00224,-7.23308 -0.00302,-14.46597 -0.02789,-21.69901c-0.02319,-6.80035 -0.02045,-13.6002 -0.00008,-20.40059c0.00343,-2.49898 -0.00172,-4.99799 -0.01598,-7.49693c-0.01808,-3.40546 -0.00552,-6.80943 0.01494,-10.21484c-0.01251,-0.99435 -0.02504,-1.98871 -0.03793,-3.0132c0.06017,-4.65346 0.10918,-6.73026 3.05759,-10.48938c2.34666,-1.75191 4.6104,-3.33168 7.17212,-4.74707c0.8822,-0.493 1.7644,-0.98597 2.67334,-1.49389c0.95085,-0.52023 1.90169,-1.04044 2.88135,-1.57642c1.00627,-0.55953 2.01254,-1.11906 3.04932,-1.69556c2.15796,-1.19873 4.31802,-2.39369 6.47998,-3.58521c3.33321,-1.83735 6.6606,-3.68481 9.98633,-5.53564c4.53194,-2.52171 9.06593,-5.03963 13.60156,-7.55469c6.42886,-3.5676 12.84508,-7.15741 19.25781,-10.75391c14.28181,-8.00757 28.59898,-15.95115 42.91602,-23.89552c13.07078,-7.25364 26.13181,-14.52382 39.1704,-21.83519c8.75122,-4.90474 17.52031,-9.77689 26.29248,-14.64405c8.89322,-4.93673 17.77078,-9.90097 26.63867,-14.88305c1.89612,-1.06408 3.79512,-2.12302 5.69727,-3.17627c1.90466,-1.07087 3.79227,-2.17248 5.66406,-3.29981c10.10062,-5.93429 10.10062,-5.93429 16.12109,-4.26611zm-10.66016,23.00781c-0.57268,0.31695 -1.14537,0.6339 -1.7354,0.96045c-1.89128,1.04815 -3.77911,2.10237 -5.66695,3.15674c-1.31981,0.73323 -2.6398,1.46614 -3.95996,2.19873c-3.99588,2.21941 -7.98709,4.44712 -11.97754,6.67627c-1.12712,0.62906 -2.25424,1.25813 -3.41553,1.90625c-6.1821,3.45206 -12.35873,6.91381 -18.53271,10.38037c-5.14079,2.88624 -10.28345,5.76913 -15.42676,8.65088c-1.02496,0.57436 -2.04993,1.14872 -3.10596,1.74048c-7.70419,4.31384 -15.42242,8.60199 -23.14404,12.88452c-8.312,4.61047 -16.60632,9.24979 -24.875,13.9375c-9.40712,5.33311 -18.85149,10.59677 -28.30811,15.84155c-11.75021,6.51813 -23.47102,13.08765 -35.19189,19.65845c-8.25,4.62 -16.5,9.24001 -25,14c0,79.86 0,159.72 0,242c18.64467,10.54846 18.64467,10.54846 37.375,20.9375c2.47458,1.36084 4.94839,2.72311 7.42188,4.08594c0.60844,0.33524 1.21689,0.67044 1.84378,1.01581c7.03622,3.88019 14.04346,7.81183 21.05075,11.74396c7.55122,4.23618 15.11389,8.45126 22.68359,12.6543c1.11874,0.62125 2.23749,1.24249 3.39014,1.88257c5.71002,3.17001 11.4213,6.33774 17.1333,9.50415c11.4476,6.34894 22.87346,12.73196 34.25879,19.19189c5.28836,2.99396 10.59154,5.9595 15.91309,8.89404c0.60741,0.33542 1.2148,0.67087 1.84062,1.01648c3.09367,1.70633 6.19261,3.40179 9.3022,5.07898c5.8887,3.19019 11.60237,6.46194 17.1814,10.18188c8.69688,6.24023 8.69688,6.24023 18.76709,8.78223c4.50739,-1.10791 8.00459,-3.68607 11.67676,-6.42969c4.0556,-2.8894 8.49086,-5.14441 12.84912,-7.54004c1.97958,-1.12457 3.9574,-2.25229 5.93359,-3.38281c6.84167,-3.89395 13.73184,-7.69769 20.62891,-11.49219c2.47144,-1.3605 4.94278,-2.72122 7.41406,-4.08203c0.61206,-0.33698 1.22415,-0.67398 1.85477,-1.02118c6.37735,-3.51254 12.74277,-7.04651 19.10617,-10.58429c1.10568,-0.61472 2.2114,-1.22943 3.35059,-1.86279c2.22726,-1.23849 4.4545,-2.47711 6.68164,-3.71582c6.73956,-3.7478 13.48132,-7.4917 20.22266,-11.23633c5.60065,-3.11121 11.20081,-6.2233 16.7998,-9.3374c11.59592,-6.44818 23.20068,-12.87982 34.82031,-19.28516c9.28003,-5.11652 18.55777,-10.23715 27.82495,-15.37695c1.76166,-0.97675 3.52399,-1.95227 5.28638,-2.92773c1.05896,-0.5878 2.11792,-1.17563 3.20898,-1.78125c0.93085,-0.51611 1.86172,-1.03223 2.8208,-1.56396c1.82834,-1.04645 3.60608,-2.18155 5.35889,-3.3501c0.44824,-1.85693 0.44824,-1.85693 0.36914,-4.02551c0.00598,-0.84695 0.01196,-1.69391 0.0181,-2.56656c-0.00873,-0.93576 -0.01749,-1.87155 -0.02646,-2.83569c0.00256,-0.98993 0.00513,-1.97986 0.00775,-2.99979c0.00497,-3.33829 -0.0116,-6.67612 -0.02795,-10.01434c-0.00085,-2.38449 -0.00037,-4.76901 0.00134,-7.1535c0.00076,-5.81647 -0.01227,-11.63278 -0.03131,-17.44919c-0.02145,-6.76624 -0.02594,-13.53244 -0.02939,-20.29868c-0.00656,-12.06708 -0.02655,-24.13412 -0.0549,-36.20117c-0.02753,-11.72397 -0.04877,-23.44789 -0.06152,-35.17188c-0.00079,-0.72232 -0.00159,-1.44466 -0.00238,-2.18887c-0.00391,-3.6236 -0.00772,-7.24721 -0.01144,-10.8708c-0.0311,-30.07472 -0.0842,-60.14935 -0.15097,-90.22401c-0.63382,-0.34525 -1.26764,-0.69049 -1.92065,-1.0462c-2.89685,-1.57822 -5.7934,-3.157 -8.68994,-4.73578c-0.99707,-0.54312 -1.99417,-1.08623 -3.02148,-1.64581c-6.55194,-3.57182 -13.07498,-7.18463 -19.55542,-10.8847c-8.37073,-4.75415 -16.76868,-9.45656 -25.1875,-14.125c-8.71918,-4.83504 -17.42923,-9.68551 -26.125,-14.5625c-8.65543,-4.8537 -17.32303,-9.68491 -26,-14.5c-13.88287,-7.70486 -27.73541,-15.46323 -41.58398,-23.22949c-3.09677,-1.73643 -6.19382,-3.47238 -9.29102,-5.20801c-1.01175,-0.56703 -2.0235,-1.13405 -3.06592,-1.71826c-5.64661,-3.16192 -11.29874,-6.31362 -16.95752,-9.45361c-0.61584,-0.34177 -1.23169,-0.68354 -1.86618,-1.03566c-2.98833,-1.65807 -5.97737,-3.31482 -8.96732,-4.96996c-1.0733,-0.59498 -2.14661,-1.18997 -3.25244,-1.80298c-0.94585,-0.5236 -1.89169,-1.0472 -2.86621,-1.58667c-1.81264,-1.02307 -3.60199,-2.0882 -5.36914,-3.18799c-4.12552,-2.36533 -6.00446,-0.48792 -9.94043,1.70044z"/>
  <path id="svg_2" fill="#f54a00" d="m329.32813,198.03516c2.48032,1.82397 4.5722,3.72018 6.67188,5.96484c-2.08389,6.1557 -6.29428,9.8085 -10.8125,14.3125c-0.80759,0.83595 -1.6152,1.67192 -2.44727,2.5332c-1.18045,1.18433 -1.18045,1.18433 -2.38477,2.39258c-0.71518,0.72227 -1.43036,1.44455 -2.16724,2.18872c-2.65332,1.90733 -3.98721,2.04758 -7.18823,1.573c-1.67523,-1.32256 -3.34106,-2.65706 -5,-4c-7.69363,-3.14026 -16.48978,-3.216 -24.3125,-0.4375c-6.99222,3.18135 -11.87955,8.2616 -14.6875,15.4375c-1.0036,4.02118 -1.13809,7.82066 -1.16113,11.95825c-0.00497,0.68039 -0.00995,1.36076 -0.01505,2.06177c-0.01453,2.23943 -0.02139,4.47879 -0.02695,6.71826c-0.00284,0.76874 -0.00565,1.53748 -0.00858,2.32953c-0.01495,4.06812 -0.0242,8.13623 -0.02853,12.20441c-0.00549,4.18616 -0.02951,8.37198 -0.05798,12.55804c-0.01868,3.23349 -0.02383,6.46692 -0.02536,9.7005c-0.00299,1.54245 -0.01099,3.0849 -0.02417,4.62732c-0.08499,10.69623 0.37137,19.16861 7.34775,27.84192c7.29022,6.5253 13.90829,8.51721 23.66797,8.39453c5.14005,-0.60861 8.96899,-2.74295 13.33203,-5.39453c1.06543,-0.45245 1.06543,-0.45245 2.15234,-0.91406c2.3461,-1.37891 2.81885,-2.59851 3.84766,-5.08594c0.34161,-0.61874 0.6832,-1.23749 1.03516,-1.875c4.29987,-8.89404 3.70636,-18.43188 3.96484,-28.125c-9.23999,0 -18.48001,0 -28,0c-1.42502,-2.85007 -1.12979,-5.28619 -1.13281,-8.46875c-0.00192,-1.93939 -0.00192,-1.93939 -0.00391,-3.91797c0.00211,-0.67465 0.00418,-1.34933 0.00635,-2.04443c0.00537,-2.06079 0.00003,-4.12134 -0.00635,-6.18213c0.00128,-1.29294 0.00256,-2.58588 0.00391,-3.91797c0.00113,-1.19174 0.00226,-2.38348 0.00342,-3.61133c0.12939,-2.85742 0.12939,-2.85742 1.12939,-4.85742c20.13,0 40.26001,0 61,0c0.06186,8.99249 0.12375,17.98499 0.1875,27.25c0.04095,4.22153 0.04095,4.22153 0.08276,8.52832c0.00876,2.2666 0.01642,4.5332 0.02271,6.7998c0.02301,1.72162 0.02301,1.72162 0.04651,3.47803c0.0054,16.90317 -5.68747,31.60275 -17.33948,43.94385c-12.19122,11.70273 -28.05283,18.55618 -44.95215,18.34961c-18.32007,-0.6416 -32.67746,-8.35333 -45.04785,-21.34961c-17.13846,-18.71368 -16.33713,-42.71094 -16.26074,-66.51514c0.01071,-3.97559 0.00006,-7.95071 -0.0127,-11.92627c-0.01471,-25.36823 1.17957,-47.70801 19.64063,-67.05078c22.30225,-21.24338 53.96237,-21.49332 78.96094,-5.47266z"/>
  <path id="svg_3" fill="#f54a00" d="m151.71802,186.88647c0.65422,-0.00015 1.30844,-0.00029 1.98248,-0.00044c2.14804,0.00069 4.29599,0.00845 6.44403,0.01631c1.49501,0.00188 2.99002,0.0033 4.48503,0.00429c3.92415,0.0038 7.84828,0.01363 11.77242,0.0247c4.00858,0.01025 8.01717,0.0148 12.02576,0.01984c7.85744,0.0107 15.71484,0.02776 23.57227,0.04883c0.02466,4.53897 0.04285,9.07791 0.05493,13.61694c0.00504,1.54526 0.01187,3.0905 0.02051,4.63574c0.01208,2.21657 0.01779,4.43307 0.02222,6.64966c0.00516,0.69481 0.01031,1.3896 0.01564,2.10545c0.00018,1.66449 -0.05141,3.32886 -0.1133,4.9922c-1.77773,1.77773 -4.37982,1.14346 -6.78564,1.15771c-1.23863,0.01027 -2.47728,0.02052 -3.75345,0.0311c-0.99991,0.00516 -0.99991,0.00516 -2.02002,0.01042c-2.0856,0.01178 -4.17101,0.03122 -6.25653,0.05312c-5.9315,0.06163 -11.86298,0.11551 -17.79471,0.14902c-3.62585,0.02103 -7.25134,0.05641 -10.87698,0.10075c-1.37856,0.01411 -2.75716,0.02287 -4.13577,0.02605c-10.09636,-0.00024 -10.09636,-0.00024 -19.37689,3.47183c-0.99001,0.33 -1.98,0.66 -3,1c-1.1017,1.69769 -1.1017,1.69769 -2,4c-0.53625,1.03125 -1.07251,2.0625 -1.625,3.125c-2.1796,5.21983 -2.34973,10.71399 -0.68359,16.11719c2.14796,4.76329 4.83374,7.94031 9.30859,10.75781c7.68893,2.38333 15.65591,2.32364 23.62891,2.37891c1.27084,0.017 2.5417,0.034 3.85106,0.05151c3.34499,0.04385 6.68987,0.08029 10.03499,0.11218c4.74226,0.04608 9.48439,0.10159 14.22649,0.16269c2.51952,0.03204 5.03911,0.0589 7.55875,0.08023c1.12886,0.01349 2.25771,0.02698 3.42076,0.04089c1.49698,0.01428 1.49698,0.01428 3.02419,0.02884c2.25487,0.14474 2.25487,0.14474 3.25487,1.14474c0.1002,2.27948 0.13081,4.56207 0.13281,6.84375c0.00096,0.6843 0.00192,1.36859 0.0029,2.07361c0.00069,1.44925 -0.00117,2.89853 -0.00534,4.34778c-0.00534,2.22549 -0.00006,4.45078 0.00635,6.67627c-0.00066,1.40494 -0.00194,2.80991 -0.00391,4.21484c-0.00113,1.28714 -0.00226,2.57425 -0.00342,3.90039c-0.12939,2.94336 -0.12939,2.94336 -1.12939,3.94336c-1.90515,0.10449 -3.81418,0.13855 -5.72217,0.14526c-1.22572,0.00638 -2.45146,0.01276 -3.71432,0.01932c-1.3519,0.00156 -2.7038,0.00266 -4.05569,0.00339c-1.38469,0.00323 -2.76939,0.00659 -4.15408,0.0101c-2.91382,0.00598 -5.82761,0.00784 -8.74142,0.00723c-3.70613,-0.00009 -7.41206,0.01346 -11.11813,0.03076c-2.86734,0.01123 -5.73463,0.01315 -8.60199,0.01263c-2.02209,0.00171 -4.04416,0.01251 -6.06622,0.02356c-9.37653,-0.02295 -18.11987,-0.56058 -26.82596,-4.25226c0.00221,0.97498 0.00444,1.94995 0.00673,2.95447c0.02023,9.16782 0.03525,18.33566 0.04507,27.50354c0.00523,4.71381 0.01233,9.42755 0.02364,14.14136c0.01083,4.54517 0.01685,9.09036 0.01944,13.63556c0.00185,1.73804 0.00546,3.47604 0.01085,5.21405c0.00722,2.42581 0.00826,4.85153 0.0078,7.27734c0.00359,0.72577 0.00719,1.45154 0.01089,2.19928c-0.01038,4.96033 -0.01038,4.96033 -1.12442,6.0744c-2.27948,0.10022 -4.56207,0.1308 -6.84375,0.13281c-1.02643,0.00143 -1.02643,0.00143 -2.07361,0.0029c-1.44926,0.0007 -2.89853,-0.00119 -4.34777,-0.00534c-2.2255,-0.00537 -4.4508,-0.00006 -6.67627,0.00635c-1.40495,-0.00067 -2.8099,-0.00195 -4.21485,-0.00391c-1.28713,-0.00113 -2.57426,-0.00226 -3.90039,-0.00342c-2.94336,-0.12939 -2.94336,-0.12939 -3.94336,-1.12939c-0.10057,-1.69833 -0.13077,-3.40085 -0.13371,-5.10214c-0.00427,-1.10602 -0.00853,-2.21201 -0.01292,-3.35153c0.00045,-1.22437 0.00089,-2.4487 0.00137,-3.71014c-0.00336,-1.28131 -0.00671,-2.56262 -0.01018,-3.88275c-0.00887,-3.52734 -0.01118,-7.05469 -0.01181,-10.58209c-0.00072,-2.20569 -0.00285,-4.41135 -0.0055,-6.61703c-0.00927,-7.70139 -0.01334,-15.40274 -0.01255,-23.10416c0.0006,-7.16565 -0.00991,-14.33121 -0.02575,-21.49683c-0.01311,-6.15726 -0.01842,-12.31445 -0.0178,-18.47174c0.00026,-3.67462 -0.00254,-7.34918 -0.01317,-11.02377c-0.01157,-4.10986 -0.00691,-8.21956 -0.0009,-12.32944c-0.00562,-1.20612 -0.01125,-2.41226 -0.01703,-3.65492c0.0533,-14.37401 2.84167,-27.49545 12.25995,-38.67345c0.72188,-0.98999 1.44375,-1.98 2.1875,-3c9.52655,-11.09918 24.10172,-17.1407 38.53052,-17.11353z"/>
  <path id="svg_4" fill="#f54a00" d="m231,73c3.88138,1.5617 7.44176,3.60088 11.0625,5.6875c1.05147,0.58797 2.10294,1.17595 3.18628,1.78174c3.25975,1.82756 6.50594,3.67766 9.75122,5.53076c1.91071,1.07819 3.82211,2.15507 5.73438,3.23047c3.76633,2.12088 7.52722,4.25102 11.28516,6.38672c6.47015,3.66982 12.97409,7.27773 19.48047,10.88281c8.35419,4.63051 16.6911,9.28873 25,14c8.22849,4.66414 16.48044,9.28409 24.75,13.875c1.11545,0.61996 2.2309,1.23993 3.38013,1.87866c5.30521,2.94606 10.61438,5.884 15.93716,8.79816c2.45248,1.34354 4.9025,2.69157 7.35226,4.04004c1.71417,0.94112 3.43192,1.87567 5.14978,2.81001c16.20673,8.92633 16.20673,8.92633 17.93066,14.09813c0.09961,2.4469 0.14346,4.86542 0.14044,7.31247c0.00299,0.75041 0.00595,1.50082 0.009,2.27396c0.0087,2.52184 0.01019,5.04361 0.01169,7.56544c0.00461,1.8051 0.00964,3.6102 0.01505,5.41533c0.01312,4.9091 0.01956,9.81816 0.02402,14.72728c0.00293,3.06564 0.00702,6.1313 0.01151,9.19695c0.01367,9.58789 0.02332,19.17577 0.02719,28.76367c0.00449,11.0752 0.02203,22.15024 0.05103,33.22543c0.02158,8.55634 0.03168,17.11261 0.03302,25.66898c0.00104,5.11255 0.00699,10.22498 0.02481,15.33749c0.01648,4.80823 0.01868,9.61624 0.00989,14.42447c-0.00079,1.76529 0.00357,3.53055 0.01343,5.29581c0.0127,2.409 0.00687,4.81729 -0.00357,7.22629c0.01208,1.04898 0.01208,1.04898 0.02441,2.11917c-0.04385,4.31808 -0.74127,7.02023 -3.39191,10.44727c-3.16818,2.11212 -5.13217,2.33157 -8.86719,2.55859c-3.43823,-0.90048 -4.90576,-2.85187 -7.13281,-5.55859c-0.63086,-3.39514 -0.63086,-3.39514 -0.63922,-7.35883c-0.00836,-0.73117 -0.01672,-1.46231 -0.02533,-2.21561c-0.02191,-2.44482 -0.00833,-4.88815 0.00513,-7.33304c-0.00845,-1.75443 -0.0191,-3.50882 -0.03177,-5.26324c-0.02817,-4.75998 -0.02567,-9.51956 -0.0177,-14.27963c0.00311,-4.97552 -0.02191,-9.95093 -0.04398,-14.92642c-0.03748,-9.42047 -0.04956,-18.84085 -0.05261,-28.26141c-0.0047,-10.72552 -0.0376,-21.45087 -0.07288,-32.17628c-0.07199,-22.06183 -0.10846,-44.1236 -0.12164,-66.18553c-0.80649,-0.44476 -1.61298,-0.88951 -2.44391,-1.34775c-3.06372,-1.68965 -6.12735,-3.37946 -9.19092,-5.06934c-1.31256,-0.72397 -2.62512,-1.44789 -3.93774,-2.17175c-18.70874,-10.31734 -37.38278,-20.69601 -56.01874,-31.14432c-7.5856,-4.25101 -15.18176,-8.48264 -22.78369,-12.70435c-1.11279,-0.61827 -2.22556,-1.23653 -3.37207,-1.87354c-5.20761,-2.8922 -10.41708,-5.78098 -15.63211,-8.65981c-38.81107,-21.42637 -38.81107,-21.42637 -40.49582,-26.84166c-0.1543,-3.93463 0.77722,-5.89099 2.875,-9.1875c3.79001,-2.52668 6.62143,-2.77823 11,-2z"/>
 </g>
</svg>